<mxfile host="app.diagrams.net" modified="2024-07-03T08:24:25.480Z" agent="Mozilla/5.0 (Windows NT 10.0; Win64; x64) AppleWebKit/537.36 (KHTML, like Gecko) Chrome/126.0.0.0 Safari/537.36" version="24.6.4" etag="N-7AJBOKWRlOMxhDAuMO" type="github">
  <diagram name="Page-1" id="H3KnHBIow6JzWXQ-eB6e">
    <mxGraphModel>
      <root>
        <mxCell id="0" />
        <mxCell id="1" parent="0" />
      </root>
    </mxGraphModel>
  </diagram>
</mxfile>
